<svg width="3119" height="781" viewBox="0 0 3119 781" fill="none" xmlns="http://www.w3.org/2000/svg">
<path d="M404.275 432.031L118 323.5V400.206L404.275 521.792V432.031Z" fill="#0C63C2"/>
<path d="M735.202 324.671L447.613 204V280.705L735.202 402.292V324.671Z" fill="#FAE928"/>
<path d="M447.614 433.344L735.203 324.813V401.519L447.614 523.105V433.344Z" fill="#52CB51"/>
<path d="M118.001 323.692L405.59 204V280.727L118.001 400.979V323.692Z" fill="#FF9001"/>
<path d="M2806.02 494.882V294.497H2851.67L2855.71 328.433C2861.9 316.582 2870.79 307.155 2882.37 300.153C2894.22 293.15 2908.09 289.649 2923.98 289.649C2948.76 289.649 2968.02 297.459 2981.76 313.081C2995.49 328.702 3002.36 351.596 3002.36 381.761V494.882H2950.65V386.609C2950.65 369.372 2947.15 356.174 2940.14 347.017C2933.14 337.86 2922.23 333.281 2907.42 333.281C2892.88 333.281 2880.89 338.398 2871.46 348.633C2862.31 358.868 2857.73 373.142 2857.73 391.457V494.882H2806.02Z" fill="black"/>
<path d="M2681.41 499.73C2662.01 499.73 2644.51 495.286 2628.89 486.398C2613.53 477.51 2601.28 465.255 2592.12 449.634C2583.23 433.743 2578.79 415.428 2578.79 394.689C2578.79 373.95 2583.37 355.77 2592.53 340.149C2601.68 324.258 2613.94 311.869 2629.29 302.981C2644.91 294.093 2662.42 289.649 2681.81 289.649C2700.93 289.649 2718.17 294.093 2733.52 302.981C2749.14 311.869 2761.4 324.258 2770.29 340.149C2779.44 355.77 2784.02 373.95 2784.02 394.689C2784.02 415.428 2779.44 433.743 2770.29 449.634C2761.4 465.255 2749.14 477.51 2733.52 486.398C2717.9 495.286 2700.53 499.73 2681.41 499.73ZM2681.41 454.886C2694.87 454.886 2706.59 449.903 2716.55 439.938C2726.52 429.703 2731.5 414.62 2731.5 394.689C2731.5 374.758 2726.52 359.81 2716.55 349.845C2706.59 339.61 2695.01 334.493 2681.81 334.493C2668.07 334.493 2656.22 339.61 2646.26 349.845C2636.56 359.81 2631.71 374.758 2631.71 394.689C2631.71 414.62 2636.56 429.703 2646.26 439.938C2656.22 449.903 2667.94 454.886 2681.41 454.886Z" fill="black"/>
<path d="M2529.66 263.388C2520.23 263.388 2512.42 260.56 2506.23 254.904C2500.3 249.248 2497.34 242.111 2497.34 233.492C2497.34 224.873 2500.3 217.871 2506.23 212.484C2512.42 206.828 2520.23 204 2529.66 204C2539.09 204 2546.76 206.828 2552.69 212.484C2558.88 217.871 2561.98 224.873 2561.98 233.492C2561.98 242.111 2558.88 249.248 2552.69 254.904C2546.76 260.56 2539.09 263.388 2529.66 263.388ZM2503.8 494.882V294.497H2555.52V494.882H2503.8Z" fill="black"/>
<path d="M2445.26 494.882C2424.26 494.882 2407.42 489.764 2394.76 479.529C2382.11 469.295 2375.78 451.115 2375.78 424.989V337.725H2341.44V294.496H2375.78L2381.84 240.764H2427.49V294.496H2481.62V337.725H2427.49V425.393C2427.49 435.089 2429.51 441.823 2433.55 445.593C2437.86 449.095 2445.13 450.845 2455.36 450.845H2480.41V494.882H2445.26Z" fill="black"/>
<path d="M2239.26 499.73C2219.87 499.73 2202.36 495.286 2186.74 486.398C2171.38 477.51 2159.13 465.255 2149.97 449.634C2141.08 433.743 2136.64 415.428 2136.64 394.689C2136.64 373.95 2141.22 355.77 2150.38 340.149C2159.53 324.258 2171.79 311.869 2187.14 302.981C2202.76 294.093 2220.27 289.649 2239.66 289.649C2258.78 289.649 2276.02 294.093 2291.37 302.981C2306.99 311.869 2319.25 324.258 2328.14 340.149C2337.3 355.77 2341.87 373.95 2341.87 394.689C2341.87 415.428 2337.3 433.743 2328.14 449.634C2319.25 465.255 2306.99 477.51 2291.37 486.398C2275.75 495.286 2258.38 499.73 2239.26 499.73ZM2239.26 454.886C2252.72 454.886 2264.44 449.903 2274.41 439.938C2284.37 429.703 2289.35 414.62 2289.35 394.689C2289.35 374.758 2284.37 359.81 2274.41 349.845C2264.44 339.61 2252.86 334.493 2239.66 334.493C2225.93 334.493 2214.07 339.61 2204.11 349.845C2194.41 359.81 2189.56 374.758 2189.56 394.689C2189.56 414.62 2194.41 429.703 2204.11 439.938C2214.07 449.903 2225.79 454.886 2239.26 454.886Z" fill="black"/>
<path d="M1811.9 494.882V212.08H1873.3L1963.4 391.457L2052.28 212.08H2113.69V494.882H2061.97V299.749L1983.19 454.482H1942.39L1863.61 299.749V494.882H1811.9Z" fill="black"/>
<path d="M1690.84 499.73C1670.64 499.73 1652.73 495.421 1637.11 486.802C1621.48 478.183 1609.23 466.063 1600.34 450.442C1591.45 434.82 1587.01 416.775 1587.01 396.305C1587.01 375.567 1591.32 357.117 1599.94 340.957C1608.83 324.797 1620.95 312.273 1636.3 303.385C1651.92 294.227 1670.23 289.649 1691.24 289.649C1710.9 289.649 1728.28 293.958 1743.36 302.577C1758.44 311.195 1770.16 323.046 1778.51 338.129C1787.13 352.942 1791.43 369.506 1791.43 387.821C1791.43 390.784 1791.3 393.881 1791.03 397.113C1791.03 400.345 1790.9 403.712 1790.63 407.213H1638.32C1639.4 422.835 1644.78 435.089 1654.48 443.978C1664.44 452.866 1676.43 457.31 1690.43 457.31C1700.94 457.31 1709.69 455.02 1716.69 450.442C1723.97 445.594 1729.35 439.399 1732.85 431.857H1785.37C1781.6 444.516 1775.27 456.098 1766.39 466.602C1757.77 476.836 1746.99 484.916 1734.07 490.842C1721.41 496.767 1707 499.73 1690.84 499.73ZM1691.24 331.665C1678.58 331.665 1667.41 335.301 1657.71 342.573C1648.01 349.576 1641.82 360.349 1639.13 374.893H1738.91C1738.11 361.696 1733.26 351.192 1724.37 343.381C1715.48 335.57 1704.44 331.665 1691.24 331.665Z" fill="black"/>
<path d="M1446.28 499.73C1427.42 499.73 1410.59 495.151 1395.78 485.994C1380.96 476.836 1369.25 464.312 1360.63 448.421C1352.01 432.531 1347.7 414.485 1347.7 394.285C1347.7 374.085 1352.01 356.174 1360.63 340.553C1369.25 324.662 1380.96 312.273 1395.78 303.385C1410.59 294.227 1427.42 289.648 1446.28 289.648C1461.36 289.648 1474.56 292.477 1485.87 298.133C1497.18 303.789 1506.34 311.734 1513.34 321.969V204H1565.05V494.882H1519L1513.34 466.198C1506.88 475.086 1498.26 482.896 1487.49 489.63C1476.98 496.363 1463.25 499.73 1446.28 499.73ZM1457.19 454.481C1473.88 454.481 1487.49 448.96 1497.99 437.917C1508.76 426.605 1514.15 412.196 1514.15 394.689C1514.15 377.182 1508.76 362.908 1497.99 351.865C1487.49 340.553 1473.88 334.897 1457.19 334.897C1440.76 334.897 1427.15 340.418 1416.38 351.461C1405.61 362.504 1400.22 376.778 1400.22 394.285C1400.22 411.792 1405.61 426.201 1416.38 437.513C1427.15 448.825 1440.76 454.481 1457.19 454.481Z" fill="black"/>
<path d="M1229.55 499.73C1210.16 499.73 1192.66 495.286 1177.03 486.398C1161.68 477.51 1149.43 465.255 1140.27 449.634C1131.38 433.743 1126.94 415.428 1126.94 394.689C1126.94 373.95 1131.52 355.77 1140.67 340.149C1149.83 324.258 1162.09 311.869 1177.44 302.981C1193.06 294.093 1210.57 289.649 1229.96 289.649C1249.08 289.649 1266.32 294.093 1281.67 302.981C1297.29 311.869 1309.55 324.258 1318.43 340.149C1327.59 355.77 1332.17 373.95 1332.17 394.689C1332.17 415.428 1327.59 433.743 1318.43 449.634C1309.55 465.255 1297.29 477.51 1281.67 486.398C1266.05 495.286 1248.68 499.73 1229.55 499.73ZM1229.55 454.886C1243.02 454.886 1254.74 449.903 1264.7 439.938C1274.67 429.703 1279.65 414.62 1279.65 394.689C1279.65 374.758 1274.67 359.81 1264.7 349.845C1254.74 339.61 1243.16 334.493 1229.96 334.493C1216.22 334.493 1204.37 339.61 1194.41 349.845C1184.71 359.81 1179.86 374.758 1179.86 394.689C1179.86 414.62 1184.71 429.703 1194.41 439.938C1204.37 449.903 1216.09 454.886 1229.55 454.886Z" fill="black"/>
<path d="M989.048 499.73C960.499 499.73 935.989 493.67 915.52 481.549C895.05 469.16 879.294 452.057 868.252 430.241C857.209 408.156 851.688 382.704 851.688 353.885C851.688 325.066 857.209 299.614 868.252 277.528C879.294 255.443 895.05 238.205 915.52 225.816C935.989 213.427 960.499 207.232 989.048 207.232C1022.98 207.232 1050.73 215.716 1072.27 232.684C1094.09 249.383 1107.69 272.95 1113.08 303.384H1056.11C1052.61 288.032 1045.07 276.047 1033.49 267.428C1022.18 258.54 1007.09 254.096 988.24 254.096C962.115 254.096 941.645 262.984 926.832 280.76C912.019 298.536 904.612 322.911 904.612 353.885C904.612 384.858 912.019 409.233 926.832 427.009C941.645 444.516 962.115 453.269 988.24 453.269C1007.09 453.269 1022.18 449.229 1033.49 441.149C1045.07 432.8 1052.61 421.353 1056.11 406.809H1113.08C1107.69 435.897 1094.09 458.656 1072.27 475.085C1050.73 491.515 1022.98 499.73 989.048 499.73Z" fill="black"/>
</svg>
